<svg xmlns="http://www.w3.org/2000/svg" width="120" height="120" viewBox="0 0 100 100" role="img" aria-label="Striped heart" style="color: #c52443">
  <defs>
    <clipPath id="heart-clip"><path d="M50 91.5C44.2 86.2 18 64.1 10.7 50.1 2.8 34.9 10.3 17.5 26.7 13.1 36.7 10.4 45.2 15.1 50 23.8 54.8 15.1 63.3 10.4 73.3 13.1 89.7 17.5 97.2 34.9 89.3 50.1 82 64.1 55.8 86.2 50 91.5Z" /></clipPath>
    <pattern id="heart-stripes" width="11" height="11" patternUnits="userSpaceOnUse" patternTransform="rotate(-45)">
      <line x1="0" y1="0" x2="0" y2="11" stroke="color-mix(in srgb, currentColor 65%, white)" stroke-width="4" />
    </pattern>
  </defs>
  <path d="M50 91.5C44.2 86.2 18 64.1 10.7 50.1 2.8 34.9 10.3 17.5 26.7 13.1 36.7 10.4 45.2 15.1 50 23.8 54.8 15.1 63.3 10.4 73.3 13.1 89.7 17.5 97.2 34.9 89.3 50.1 82 64.1 55.8 86.2 50 91.5Z" fill="currentColor" />
  <rect width="100" height="100" fill="url(#heart-stripes)" opacity=".32" clip-path="url(#heart-clip)" />
</svg>
